# xmcd
#
# Track frame offsets:
#	150
#	14253
#	36479
#	54351
#	69967
#	91167
#	105344
#	124565
#	138906
#	154379
#	173974
#	196720
#
# Disc length: 2728 seconds
#
# Revision: 1
# Processed by: cddbd v1.5.1PL0 Copyright (c) Steve Scherf et al.
# Submitted via: audiograbber 1.80
#
DISCID=920aa60c
DTITLE=Stephanie Davis - Crocus in the Snow
DYEAR=1900
DGENRE=
TTITLE0=Somethin' 'Bout Montana
TTITLE1=Talkin' Harvest Time Blues
TTITLE2=Crocus in the Snow
TTITLE3=Just a Cup of Coffee
TTITLE4=Some Things Cost Too Much
TTITLE5=Turning to the Light
TTITLE6=Ikey
TTITLE7=Yodel Blues
TTITLE8=Cold Wind Blow
TTITLE9=You Been a Friend to Me
TTITLE10=The Spotted Ass
TTITLE11=Good Night Little Cowpup
EXTD=
EXTT0=
EXTT1=
EXTT2=
EXTT3=
EXTT4=
EXTT5=
EXTT6=
EXTT7=
EXTT8=
EXTT9=
EXTT10=
EXTT11=
PLAYORDER=
